#!OML:ASF C:\Vicon Data\Big\jianyuan-13\jianyuan\Session 1\Capture.male.ASF
:FULLY-SPECIFIED
:DEGREES
56
root -8.838071 17.335818 -19.212597 3.593480 10.800292 2.134337
lowerback -5.594288 2.215611 -1.022087 
upperback 4.003731 2.982355 0.129903 
thorax 7.267594 1.380131 1.055272 
lowerneck -0.120132 -3.268668 4.056781 
upperneck 11.391150 -4.747389 -3.233672 
head 3.537854 -2.517507 -1.929094 
rclavicle 0.000000 0.000000 
rhumerus -28.599074 -8.543148 -85.555711 
rradius 43.776487 
rwrist 21.133691 
rhand -18.562237 -17.838186 
rfingers 0.000000 
rthumb 7.727691 -47.676984 
lclavicle 0.000000 0.000000 
lhumerus -37.770684 24.239177 77.006956 
lradius 30.847872 
lwrist -45.226367 
lhand -19.180548 0.628673 
lfingers 0.000000 
lthumb 7.130888 30.488508 
rfemur -23.281512 3.156283 21.598709 
rtibia 33.423420 
rfoot -13.264846 -2.250173 
rtoes -27.778778 
lfemur -55.693580 6.965706 -18.447427 
ltibia 98.907877 
lfoot -7.513244 -9.040194 
ltoes -40.073109 
57
root -8.849935 17.361209 -19.107913 3.310208 10.687662 2.334588
lowerback -5.432633 2.325601 -1.171920 
upperback 4.049756 3.144279 0.019999 
thorax 7.217796 1.453984 1.036180 
lowerneck -0.112760 -3.271140 4.055844 
upperneck 11.386599 -4.748001 -3.241360 
head 3.534639 -2.517600 -1.931095 
rclavicle 0.000000 0.000000 
rhumerus -27.969135 -7.654077 -85.786991 
rradius 44.706865 
rwrist 20.459150 
rhand -18.657557 -17.905110 
rfingers 0.000000 
rthumb 7.635671 -47.747280 
lclavicle 0.000000 0.000000 
lhumerus -38.058934 24.966233 76.393306 
lradius 30.661974 
lwrist -46.034680 
lhand -19.162957 0.363606 
lfingers 0.000000 
lthumb 7.147886 30.222917 
rfemur -22.340035 3.313912 21.543741 
rtibia 33.070809 
rfoot -13.447834 -2.327580 
rtoes -27.486674 
lfemur -57.552919 7.111725 -18.806734 
ltibia 100.034066 
lfoot -8.203358 -9.040779 
ltoes -41.011241 
58
root -8.857475 17.387375 -19.001700 3.055279 10.697841 2.674400
lowerback -5.274118 2.419317 -1.427215 
upperback 4.099286 3.295182 -0.143396 
thorax 7.171024 1.518055 1.018312 
lowerneck -0.142121 -3.289240 4.055777 
upperneck 11.393907 -4.778254 -3.161003 
head 3.543262 -2.528377 -1.906079 
rclavicle 0.000000 0.000000 
rhumerus -27.332212 -7.026566 -85.967658 
rradius 45.612595 
rwrist 19.906611 
rhand -18.723556 -17.998597 
rfingers 0.000000 
rthumb 7.572001 -47.843049 
lclavicle 0.000000 0.000000 
lhumerus -38.183034 25.180965 76.021859 
lradius 30.433800 
lwrist -46.456432 
lhand -19.124944 0.613616 
lfingers 0.000000 
lthumb 7.184552 30.471698 
rfemur -21.372187 3.397775 21.325488 
rtibia 32.686607 
rfoot -13.641896 -2.484615 
rtoes -27.274144 
lfemur -59.435554 6.979255 -19.282966 
ltibia 101.089176 
lfoot -8.536739 -9.171369 
ltoes -40.587113 
59
root -8.869573 17.414931 -18.892940 2.772777 10.559634 2.869275
lowerback -5.156120 2.453285 -1.667194 
upperback 4.148178 3.356209 -0.163475 
thorax 7.141052 1.534854 1.133076 
lowerneck -0.199928 -3.195240 3.768468 
upperneck 11.506794 -4.660338 -3.045861 
head 3.606443 -2.479061 -1.819628 
rclavicle 0.000000 0.000000 
rhumerus -26.606303 -6.117565 -86.070903 
rradius 46.397223 
rwrist 19.319714 
rhand -18.747464 -18.057285 
rfingers 0.000000 
rthumb 7.548877 -47.902617 
lclavicle 0.000000 0.000000 
lhumerus -38.568385 26.065941 75.425479 
lradius 30.204869 
lwrist -47.280359 
lhand -19.333774 0.485899 
lfingers 0.000000 
lthumb 6.982957 30.350718 
rfemur -20.339114 3.683285 21.272113 
rtibia 32.187910 
rfoot -13.783628 -2.674916 
rtoes -27.087123 
lfemur -61.226879 7.025943 -19.519443 
ltibia 102.053439 
lfoot -8.823200 -9.817644 
ltoes -40.449169 
60
root -8.875913 17.440138 -18.783301 2.362175 10.531234 3.137879
lowerback -4.902225 2.575761 -1.834519 
upperback 4.213738 3.531999 -0.341135 
thorax 7.060637 1.615149 1.048400 
lowerneck -0.154880 -3.259252 3.906723 
upperneck 11.526872 -4.755901 -3.009062 
head 3.599475 -2.519945 -1.833202 
rclavicle 0.000000 0.000000 
rhumerus -25.989067 -5.834462 -86.220002 
rradius 47.162336 
rwrist 18.915818 
rhand -18.773180 -18.234363 
rfingers 0.000000 
rthumb 7.524084 -48.080546 
lclavicle 0.000000 0.000000 
lhumerus -38.745724 26.144164 74.947733 
lradius 29.907294 
lwrist -47.530040 
lhand -19.408580 0.533835 
lfingers 0.000000 
lthumb 6.910750 30.400999 
rfemur -19.135161 3.883229 21.140409 
rtibia 31.688786 
rfoot -13.996901 -2.909508 
rtoes -26.713735 
lfemur -62.793607 6.869888 -19.832098 
ltibia 102.944953 
lfoot -8.885249 -10.328546 
ltoes -39.680213 
61
root -8.882623 17.464308 -18.673412 2.046814 10.492124 3.370857
lowerback -4.738957 2.531403 -2.049532 
upperback 4.254236 3.484787 -0.413478 
thorax 7.002676 1.581283 1.080183 
lowerneck -0.198227 -3.137323 3.757207 
upperneck 11.645129 -4.599352 -2.968973 
head 3.659190 -2.449577 -1.794707 
rclavicle 0.000000 0.000000 
rhumerus -25.278710 -5.185425 -86.344193 
rradius 47.575895 
rwrist 19.062456 
rhand -18.956952 -17.960608 
rfingers 0.000000 
rthumb 7.346701 -47.813091 
lclavicle 0.000000 0.000000 
lhumerus -39.184247 26.991720 74.168113 
lradius 29.686839 
lwrist -48.357892 
lhand -18.991891 0.558343 
lfingers 0.000000 
lthumb 7.312964 30.411960 
rfemur -18.031641 4.171198 21.043197 
rtibia 31.162728 
rfoot -14.204882 -3.198053 
rtoes -26.324456 
lfemur -64.436270 6.644822 -20.085598 
ltibia 103.773861 
lfoot -9.127104 -10.884702 
ltoes -40.247107 
62
root -8.886549 17.488589 -18.559428 1.691406 10.503944 3.523361
lowerback -4.606521 2.629904 -2.116908 
upperback 4.276730 3.621475 -0.538938 
thorax 6.950235 1.647217 0.994507 
lowerneck -0.100551 -3.186202 3.942065 
upperneck 11.714628 -4.675331 -2.998112 
head 3.658234 -2.483874 -1.838016 
rclavicle 0.000000 0.000000 
rhumerus -24.774000 -4.893495 -86.414624 
rradius 48.154160 
rwrist 18.703518 
rhand -19.084235 -18.067413 
rfingers 0.000000 
rthumb 7.223808 -47.924139 
lclavicle 0.000000 0.000000 
lhumerus -39.426606 27.263857 73.568496 
lradius 29.291493 
lwrist -49.051470 
lhand -18.994648 0.520867 
lfingers 0.000000 
lthumb 7.310346 30.374600 
rfemur -16.823971 4.381420 21.036860 
rtibia 30.544379 
rfoot -14.377248 -3.456725 
rtoes -26.042250 
lfemur -65.947332 6.428562 -20.269550 
ltibia 104.519163 
lfoot -9.354787 -11.293583 
ltoes -40.451061 
63
root -8.888097 17.509268 -18.446203 1.413675 10.236516 3.755574
lowerback -4.531606 2.742742 -2.290425 
upperback 4.275540 3.786862 -0.649720 
thorax 6.897789 1.722202 0.987933 
lowerneck 0.023570 -3.180075 3.921560 
upperneck 11.738693 -4.674732 -2.947475 
head 3.644586 -2.485228 -1.814519 
rclavicle 0.000000 0.000000 
rhumerus -24.175644 -4.663163 -86.439600 
rradius 48.555085 
rwrist 18.756215 
rhand -18.807827 -18.047155 
rfingers 0.000000 
rthumb 7.490660 -47.894462 
lclavicle 0.000000 0.000000 
lhumerus -39.738827 27.641099 72.990263 
lradius 29.026329 
lwrist -49.431970 
lhand -18.891115 0.681494 
lfingers 0.000000 
lthumb 7.410275 30.531706 
rfemur -15.719978 4.684282 20.925177 
rtibia 29.918860 
rfoot -14.519758 -3.529379 
rtoes -25.900632 
lfemur -67.440825 6.495130 -20.566398 
ltibia 105.139646 
lfoot -9.612328 -11.520907 
ltoes -39.915626 
64
root -8.886644 17.531238 -18.328723 0.985048 10.300150 3.943739
lowerback -4.334003 2.717924 -2.337093 
upperback 4.323776 3.750509 -0.761591 
thorax 6.840671 1.702351 0.884269 
lowerneck 0.093107 -3.145981 3.882403 
upperneck 11.817511 -4.635182 -2.948741 
head 3.661469 -2.470892 -1.807458 
rclavicle 0.000000 0.000000 
rhumerus -23.600501 -4.303327 -86.543403 
rradius 48.887219 
rwrist 18.531208 
rhand -18.886799 -18.086430 
rfingers 0.000000 
rthumb 7.414412 -47.936478 
lclavicle 0.000000 0.000000 
lhumerus -40.090267 28.138120 72.318327 
lradius 28.765139 
lwrist -49.816772 
lhand -18.634897 0.826993 
lfingers 0.000000 
lthumb 7.657597 30.668350 
rfemur -14.345839 4.919216 20.882372 
rtibia 29.220479 
rfoot -14.795236 -3.809861 
rtoes -25.663499 
lfemur -68.656415 6.259939 -20.839023 
ltibia 105.600317 
lfoot -10.155080 -11.355050 
ltoes -40.575538 
65
root -8.885204 17.549960 -18.211542 0.759792 10.279002 4.214796
lowerback -4.397839 2.734212 -2.574754 
upperback 4.387864 3.793274 -0.851343 
thorax 6.936160 1.708812 0.931746 
lowerneck 0.052681 -3.151871 3.872408 
upperneck 11.861540 -4.642376 -2.983761 
head 3.683865 -2.476789 -1.820116 
rclavicle 0.000000 0.000000 
rhumerus -22.956674 -4.083450 -86.577604 
rradius 49.150650 
rwrist 18.292864 
rhand -18.937026 -18.154498 
rfingers 0.000000 
rthumb 7.365943 -48.006270 
lclavicle 0.000000 0.000000 
lhumerus -40.253242 28.522809 71.777968 
lradius 28.440834 
lwrist -50.584496 
lhand -18.550065 0.633594 
lfingers 0.000000 
lthumb 7.739450 30.471946 
rfemur -13.248050 5.208687 20.737617 
rtibia 28.583030 
rfoot -15.058609 -4.053246 
rtoes -25.479487 
lfemur -69.922382 6.072966 -21.231681 
ltibia 105.818624 
lfoot -10.607434 -10.953611 
ltoes -39.853328 
66
root -8.890136 17.568813 -18.091616 0.512008 10.126391 4.504341
lowerback -4.440728 2.752625 -2.893747 
upperback 4.425674 3.843516 -0.915240 
thorax 6.984286 1.715315 1.050111 
lowerneck -0.007506 -3.101016 3.724154 
upperneck 11.982562 -4.582430 -2.945262 
head 3.744075 -2.454433 -1.785258 
rclavicle 0.000000 0.000000 
rhumerus -22.464262 -3.671665 -86.610449 
rradius 49.350435 
rwrist 18.109401 
rhand -18.971845 -18.235105 
rfingers 0.000000 
rthumb 7.332368 -48.088014 
lclavicle 0.000000 0.000000 
lhumerus -40.666386 29.330951 70.920602 
lradius 28.029226 
lwrist -52.275713 
lhand -18.728972 0.466233 
lfingers 0.000000 
lthumb 7.566725 30.310864 
rfemur -12.105634 5.711078 20.615948 
rtibia 27.916296 
rfoot -15.326470 -4.402458 
rtoes -25.158665 
lfemur -70.945016 6.095014 -21.642801 
ltibia 105.807435 
lfoot -11.380497 -10.476437 
ltoes -40.272732 
67
root -8.892377 17.579254 -17.975910 0.165062 9.980752 4.646518
lowerback -4.366411 2.846367 -3.003367 
upperback 4.446342 3.975764 -1.037730 
thorax 6.960575 1.775517 0.992410 
lowerneck -0.023155 -3.130844 3.980846 
upperneck 12.084133 -4.634789 -3.002166 
head 3.775387 -2.474274 -1.854454 
rclavicle 0.000000 0.000000 
rhumerus -22.155471 -3.525919 -86.770747 
rradius 49.605401 
rwrist 17.882660 
rhand -19.091027 -18.418431 
rfingers 0.000000 
rthumb 7.217285 -48.275355 
lclavicle 0.000000 0.000000 
lhumerus -40.877548 29.692732 70.208753 
lradius 27.687378 
lwrist -53.168723 
lhand -18.693455 0.518399 
lfingers 0.000000 
lthumb 7.601010 30.361805 
rfemur -10.945867 6.252003 20.672975 
rtibia 27.349139 
rfoot -15.588288 -4.757815 
rtoes -25.022498 
lfemur -71.763930 6.110025 -21.865561 
ltibia 105.575171 
lfoot -11.949153 -10.076578 
ltoes -39.556382 
68
root -8.891879 17.584588 -17.858819 -0.052062 9.833496 4.875075
lowerback -4.393182 2.830659 -3.233543 
upperback 4.438916 3.973296 -1.078762 
thorax 6.956407 1.762656 1.078066 
lowerneck -0.021709 -3.056944 3.763500 
upperneck 12.176745 -4.542180 -2.943910 
head 3.816791 -2.438580 -1.797183 
rclavicle 0.000000 0.000000 
rhumerus -21.749898 -3.258245 -86.792400 
rradius 49.612723 
rwrist 18.003043 
rhand -19.082475 -18.344100 
rfingers 0.000000 
rthumb 7.225515 -48.200698 
lclavicle 0.000000 0.000000 
lhumerus -41.262553 30.314769 69.502923 
lradius 27.372754 
lwrist -54.083776 
lhand -18.816870 0.244527 
lfingers 0.000000 
lthumb 7.481926 30.092175 
rfemur -9.992903 6.596136 20.611205 
rtibia 26.977250 
rfoot -15.916339 -4.950058 
rtoes -24.922822 
lfemur -72.485150 6.062139 -22.241766 
ltibia 105.066693 
lfoot -12.438718 -9.696326 
ltoes -39.067208 
